<?xml version="1.0" encoding="UTF-8" standalone="no"?>
<svg
   width="16"
   height="16"
   fill="currentColor"
   class="bi bi-globe-asia-australia"
   viewBox="0 0 16 16"
   version="1.1"
   id="svg2"
   sodipodi:docname="favicon.svg"
   xml:space="preserve"
   inkscape:version="1.4.3 (0d15f75042, 2025-12-25)"
   xmlns:inkscape="http://www.inkscape.org/namespaces/inkscape"
   xmlns:sodipodi="http://sodipodi.sourceforge.net/DTD/sodipodi-0.dtd"
   xmlns="http://www.w3.org/2000/svg"
   xmlns:svg="http://www.w3.org/2000/svg"><defs
     id="defs2" /><sodipodi:namedview
     id="namedview2"
     pagecolor="#ffffff"
     bordercolor="#000000"
     borderopacity="0.25"
     inkscape:showpageshadow="2"
     inkscape:pageopacity="0.0"
     inkscape:pagecheckerboard="0"
     inkscape:deskcolor="#d1d1d1"
     inkscape:zoom="19.578019"
     inkscape:cx="8.3256636"
     inkscape:cy="7.8915032"
     inkscape:window-width="1214"
     inkscape:window-height="651"
     inkscape:window-x="0"
     inkscape:window-y="0"
     inkscape:window-maximized="1"
     inkscape:current-layer="svg2" /><circle
     style="fill:#008080;stroke-width:1.32732"
     id="path4"
     cx="8"
     cy="8"
     r="8" /><g
     id="g1"
     transform="matrix(0.87499773,0,0,0.87499773,1.0000364,1.0717713)"><path
       d="m 9.2475,7.46 0.639,-0.3095 a 0.2415,0.2415 0 0 0 0.063,-0.391 C 9.8235,6.6375 9.6085,6.69 9.4835,6.813 9.3685,6.926 9.227,6.9995 9.0755,7.078 l -0.051,0.027 c -0.169,0.089 -0.132,0.313 0.05,0.368 A 0.24,0.24 0 0 0 9.2475,7.4595 Z M 7.8705,8.904 V 8.89 A 0.2065,0.2065 0 1 1 8.262,8.9815 L 8.152,9.203 A 0.3,0.3 0 0 1 8.092,9.2865 L 7.9955,9.379 A 0.18,0.18 0 1 1 7.7455,9.121 L 7.8015,9.067 A 0.225,0.225 0 0 0 7.8705,8.904 M 6.836,10.25 7.077,10.3665 A 0.193,0.193 0 1 0 7.16,10 H 6.952 A 0.35,0.35 0 0 1 6.7425,9.9305 L 6.604,9.8275 a 0.151,0.151 0 1 0 -0.149,0.26 z"
       id="path1"
       style="fill:#ffffff;stroke-width:0.5" /><path
       d="M 8,4 A 4,4 0 1 0 8,12 4,4 0 0 0 8,4 M 4.806,9.4335 5.184,8.7895 A 0.5,0.5 0 0 1 5.9565,8.677 l 0.537,0.5025 A 0.493,0.493 0 0 0 7.1735,9.174 L 7.1925,9.1555 A 0.44,0.44 0 0 0 7.3225,8.778 C 7.285,8.504 7.5075,8.2615 7.7825,8.2285 8.1465,8.1855 8.576,8.0665 8.6465,7.75 8.6895,7.557 8.5895,7.335 8.466,7.15 c -0.1035,-0.156 0,-0.4 0.187,-0.4 0.0615,0 0.12,-0.0275 0.159,-0.075 L 9.0085,6.438 C 9.1065,6.3195 9.254,6.254 9.407,6.2365 9.684,6.2045 10.1105,6.098 10.1985,5.75 10.2475,5.5545 10.1025,5.433 9.9565,5.31 9.8295,5.204 9.7015,5.097 9.699,4.9395 A 3.5,3.5 0 0 1 11.4115,8.7855 0.5,0.5 0 0 0 11.368,8.754 L 11.21,8.652 A 0.5,0.5 0 0 0 10.7215,8.622 L 10.637,8.663 A 0.5,0.5 0 0 1 10.2665,8.6885 L 9.756,8.524 A 0.5,0.5 0 0 0 9.6025,8.5 H 9.52 A 0.5,0.5 0 0 0 9.0475,8.837 l -0.086,0.2495 a 0.5,0.5 0 0 1 -0.202,0.257 l -0.401,0.259 a 0.5,0.5 0 0 0 -0.229,0.42 V 10.25 a 0.5,0.5 0 0 0 0.5,0.5 H 8.758 a 0.5,0.5 0 0 1 0.271,0.08 l 0.381,0.245 a 0.5,0.5 0 0 0 0.1415,0.063 3.5,3.5 0 0 1 -4.745,-1.7045 z"
       id="path2"
       style="fill:#ffffff;stroke-width:0.5" /><path
       d="m 4.1729324,5.1745187 a 4,4 0 0 0 0,5.6560003 0.5006316,0.5006316 0 1 1 -0.708,0.708 5,5 0 0 1 0,-7.0720003 0.5006316,0.5006316 0 0 1 0.708,0.708"
       id="path3"
       style="fill:#ffffff" /><path
       d="m 3.05025,3.0525187 a 7,7 0 0 0 0,9.9000003 0.5,0.5 0 0 1 -0.707,0.707 8,8 0 0 1 0,-11.3140003 0.5,0.5 0 0 1 0.707,0.707"
       id="path1-2"
       style="fill:#ffffff" /><path
       d="m 11.827026,5.0054733 a 4,4 0 0 1 0,5.6560007 0.5006316,0.5006316 0 1 0 0.708,0.708 5,5 0 0 0 0,-7.0720007 0.5006316,0.5006316 0 0 0 -0.708,0.708"
       id="path3-9"
       style="fill:#ffffff" /><path
       d="m 12.949708,2.8834733 a 7,7 0 0 1 0,9.9000007 0.5,0.5 0 0 0 0.707,0.707 8,8 0 0 0 0,-11.3140007 0.5,0.5 0 0 0 -0.707,0.707"
       id="path1-2-3"
       style="fill:#ffffff" /></g></svg>
